<?xml version="1.0" standalone="no"?>
<!DOCTYPE svg PUBLIC "-//W3C//DTD SVG 20010904//EN"
 "http://www.w3.org/TR/2001/REC-SVG-20010904/DTD/svg10.dtd">
<svg version="1.0" xmlns="http://www.w3.org/2000/svg"
 width="60.000000pt" height="60.000000pt" viewBox="0 0 60.000000 60.000000"
 preserveAspectRatio="xMidYMid meet">
<metadata>
Created by potrace 1.16, written by Peter Selinger 2001-2019
</metadata>
<g transform="translate(0.000000,60.000000) scale(0.011719,-0.011719)"
fill="#000000" stroke="none">
<path d="M2413 4890 c-51 -21 -58 -92 -13 -135 l29 -28 -29 -34 c-38 -43 -39
-84 -4 -120 21 -21 32 -24 62 -19 20 3 47 17 61 30 l25 25 33 -30 c40 -35 73
-37 107 -6 38 34 38 81 1 125 -23 27 -23 31 -8 43 23 20 41 67 35 95 -6 30
-47 64 -78 64 -13 0 -38 -13 -57 -29 l-33 -30 -25 24 c-27 28 -74 39 -106 25z"/>
<path d="M3059 4720 c-95 -16 -172 -73 -219 -162 -30 -56 -34 -72 -35 -140 l0
-78 -743 0 c-803 0 -782 1 -840 -53 -57 -53 -57 -50 -60 -469 l-3 -386 -126
-4 c-117 -3 -126 -4 -144 -27 -27 -33 -24 -68 10 -102 29 -29 30 -29 150 -29
l121 0 0 -185 0 -185 -510 0 -510 0 2 183 3 182 225 5 c124 3 232 9 242 13 25
13 43 64 32 95 -17 47 -40 52 -289 52 -220 0 -233 -1 -275 -22 -25 -13 -55
-38 -67 -57 l-23 -34 0 -1491 0 -1491 25 -38 c53 -78 -36 -72 1145 -75 715 -2
1067 0 1091 8 51 14 88 47 110 94 15 34 19 67 19 189 l0 147 170 0 170 0 0
-145 c0 -190 17 -236 105 -276 36 -17 71 -19 372 -19 l332 0 27 23 c36 32 36
83 -1 114 -26 23 -29 23 -351 23 l-324 0 0 140 0 139 449 3 449 3 38 30 c79
65 74 -1 74 921 0 451 3 889 7 972 l6 152 529 0 528 0 -2 -1177 -3 -1178 -558
-5 -559 -5 -19 -24 c-28 -35 -25 -85 8 -111 26 -20 30 -21 597 -18 639 3 609
0 661 75 l25 38 0 1491 0 1491 -23 34 c-12 19 -42 44 -67 57 -44 22 -50 22
-435 22 l-390 0 -2 54 c-3 78 -36 157 -91 215 -47 50 -137 101 -179 101 l-23
0 0 183 c0 198 -7 240 -47 288 -50 59 -88 69 -270 69 l-162 0 1 64 c0 97 -25
161 -91 227 -76 76 -176 107 -282 89z m136 -173 c140 -78 87 -297 -72 -297
-89 0 -151 53 -161 135 -6 57 2 86 35 126 52 61 129 75 198 36z m-258 -397
c52 -33 130 -60 174 -60 58 0 131 23 180 56 l51 34 192 0 c136 0 196 -4 204
-12 8 -8 12 -65 12 -193 l0 -180 -63 -35 -62 -35 -1152 -3 -1153 -3 0 218 c0
157 3 222 12 231 9 9 197 12 785 12 l772 0 48 -30z m1008 -520 c45 -22 75 -57
93 -109 43 -123 -54 -251 -189 -251 -41 0 -122 46 -148 86 -49 71 -36 192 25
245 60 52 148 64 219 29z m-420 -162 c0 -87 4 -110 23 -149 33 -69 85 -123
146 -155 l56 -29 0 -1151 c0 -881 -3 -1153 -12 -1162 -17 -17 -2389 -17 -2406
0 -9 9 -12 123 -12 450 l0 439 -25 24 c-30 30 -64 32 -99 4 l-26 -20 0 -460
c0 -431 1 -462 19 -497 22 -42 43 -63 88 -86 28 -14 88 -16 493 -16 l461 0 -3
-137 -3 -138 -1035 0 -1035 0 -3 1178 -2 1177 510 0 510 0 0 -357 c0 -352 0
-357 22 -380 29 -31 72 -30 103 2 l25 24 0 771 0 770 1103 0 1102 0 0 -102z
m1443 -385 l2 -183 -535 0 -535 0 0 108 0 108 56 17 c65 20 135 65 166 108
l22 29 410 -2 411 -3 3 -182z"/>
<path d="M1572 4007 c-44 -47 -14 -127 48 -127 43 0 61 10 75 44 33 78 -65
145 -123 83z"/>
<path d="M1807 4018 c-27 -21 -36 -60 -22 -94 31 -75 145 -51 145 31 0 59 -76
98 -123 63z"/>
<path d="M2025 4005 c-49 -49 -16 -125 55 -125 44 0 80 35 80 77 0 34 -42 73
-80 73 -19 0 -40 -9 -55 -25z"/>
<path d="M2079 2431 c-49 -40 -18 -131 46 -131 38 0 75 37 75 75 0 62 -72 96
-121 56z"/>
<path d="M2896 2429 c-53 -41 -18 -129 51 -129 32 0 73 42 73 75 0 33 -41 75
-73 75 -13 0 -36 -9 -51 -21z"/>
<path d="M2403 2152 c-104 -37 -152 -97 -122 -151 26 -46 60 -49 130 -13 83
43 145 44 224 2 69 -36 94 -37 123 -7 47 49 18 108 -75 153 -75 37 -201 44
-280 16z"/>
<path d="M4325 4118 c-52 -28 -60 -82 -19 -135 l25 -33 -25 -31 c-33 -39 -34
-82 -1 -114 32 -33 75 -32 113 0 l30 25 38 -25 c45 -30 73 -32 108 -4 35 27
36 82 2 124 l-24 30 24 28 c31 37 33 96 4 122 -31 28 -84 24 -118 -8 -27 -26
-30 -27 -43 -11 -13 16 -69 44 -86 44 -4 0 -17 -6 -28 -12z"/>
<path d="M549 4011 c-34 -27 -31 -82 6 -121 l29 -30 -29 -30 c-83 -86 23 -191
115 -114 l31 27 28 -27 c81 -78 188 26 115 113 l-26 31 26 31 c73 87 -34 191
-115 113 l-28 -27 -31 27 c-38 31 -87 34 -121 7z"/>
</g>
</svg>
