<?xml version="1.0" encoding="iso-8859-1"?>
<!-- Generator: Adobe Illustrator 16.0.0, SVG Export Plug-In . SVG Version: 6.00 Build 0)  -->
<!DOCTYPE svg PUBLIC "-//W3C//DTD SVG 1.1//EN" "http://www.w3.org/Graphics/SVG/1.1/DTD/svg11.dtd">
<svg version="1.1" id="Capa_1" xmlns="http://www.w3.org/2000/svg" xmlns:xlink="http://www.w3.org/1999/xlink" x="0px" y="0px"
	 width="68.336px" height="68.336px" viewBox="0 0 68.336 68.336" style="enable-background:new 0 0 68.336 68.336;"
	 xml:space="preserve">
<g>
	<g>
		<path d="M53.731,9.232c-0.359,0-0.688,0.077-1.037,0.104c-2.139-5.417-7.385-9.266-13.562-9.266c-4.836,0-9.091,2.38-11.747,5.999
			c-0.926-0.181-1.879-0.287-2.856-0.287c-7.055,0-12.938,5.001-14.301,11.652C4.317,18.98,0,23.515,0,28.934
			c0,6.688,6.54,12.114,14.602,12.114c3.768,0,7.166-1.218,9.757-3.158c2.625,2.522,6.173,4.093,10.103,4.093
			c4.736,0,8.907-2.289,11.573-5.787c2.238,1.396,4.866,2.242,7.7,2.242c8.062,0,14.602-6.537,14.602-14.599
			C68.333,15.767,61.793,9.232,53.731,9.232z"/>
		<path d="M24.701,46.791c0.685,0.291,1.472-0.031,1.759-0.712c0.288-0.678-0.312-2.693-0.312-2.693s-1.867,0.962-2.154,1.646
			C23.704,45.709,24.018,46.503,24.701,46.791z"/>
		<path d="M11.788,58.193c-0.291,0.681,0.025,1.472,0.708,1.759c0.685,0.291,1.472-0.03,1.759-0.712
			c0.288-0.678-0.312-2.693-0.312-2.693S12.075,57.516,11.788,58.193z"/>
		<path d="M36.742,50.507c0.452-1.071-0.485-4.216-0.485-4.216s-2.919,1.509-3.373,2.573c-0.452,1.068,0.046,2.297,1.112,2.748
			C35.06,52.067,36.291,51.568,36.742,50.507z"/>
		<path d="M20.647,56.438c-0.291,0.682,0.027,1.469,0.712,1.76c0.683,0.287,1.468-0.031,1.759-0.709
			c0.291-0.685-0.313-2.7-0.313-2.7S20.938,55.757,20.647,56.438z"/>
		<path d="M23.994,66.399c-0.291,0.682,0.028,1.472,0.71,1.759c0.684,0.288,1.468-0.03,1.759-0.711
			c0.291-0.678-0.312-2.697-0.312-2.697S24.282,65.715,23.994,66.399z"/>
		<path d="M13.184,46.004c-0.47,1.102,0.044,2.385,1.155,2.854c1.112,0.473,2.39-0.051,2.861-1.156
			c0.469-1.103-0.508-4.381-0.508-4.381S13.652,44.895,13.184,46.004z"/>
		<path d="M44.669,44.717c-0.482,1.129,0.044,2.437,1.177,2.919c1.137,0.482,2.44-0.044,2.92-1.177
			c0.479-1.13-0.521-4.477-0.521-4.477S45.149,43.588,44.669,44.717z"/>
		<path d="M33.718,61.653c-0.48,1.133,0.044,2.439,1.178,2.919c1.136,0.482,2.438-0.048,2.919-1.178
			c0.48-1.129-0.519-4.476-0.519-4.476S34.198,60.523,33.718,61.653z"/>
	</g>
</g>
<g>
</g>
<g>
</g>
<g>
</g>
<g>
</g>
<g>
</g>
<g>
</g>
<g>
</g>
<g>
</g>
<g>
</g>
<g>
</g>
<g>
</g>
<g>
</g>
<g>
</g>
<g>
</g>
<g>
</g>
</svg>
