<svg xmlns="http://www.w3.org/2000/svg" viewBox="0 0 500 500"><g id="Layer_2" data-name="Layer 2"><g id="Layer_4" data-name="Layer 4"><circle cx="250" cy="250" r="250" fill="#c1c1c1" opacity="0.4"/><path d="M401,332h0a34.5,34.5,0,0,1-34.46,34.54h0A34.5,34.5,0,0,1,401,332Z" fill="#88b337"/><path d="M385,154.91h0a34.5,34.5,0,0,1,34.53,34.46h0A34.5,34.5,0,0,1,385,154.91Z" fill="#fdbb00"/><path d="M132.23,333.42h0A34.49,34.49,0,0,1,97.77,368h0A34.5,34.5,0,0,1,132.23,333.42Z" fill="#88b337"/><path d="M93.76,200.15h0a13.32,13.32,0,0,1-13.31-13.34h0A13.33,13.33,0,0,1,93.76,200.15Z" fill="#fdbb00"/><path d="M267.26,379.72l-.38-149.94-23,0-8.62,149.91-120,1-.11,44.72,276.11-.72v-44Z" fill="#4398d1"/><path d="M267.7,249.25l-.65-19.47-23,0-.6,19.47A22.58,22.58,0,0,0,267.7,249.25Z" fill="#3570ab"/><path d="M404.09,92.39h-8.74a14.84,14.84,0,0,0-29.39,0h-8.74a8.52,8.52,0,0,0,0,17l46.87,0a8.53,8.53,0,0,0,0-17Z" fill="#dedede"/><path d="M207.76,132.12H196a25.12,25.12,0,0,0,.28-2.87,25.8,25.8,0,0,0-48-13.13,19.83,19.83,0,0,0-26.41,16.08H110a11.5,11.5,0,0,0,0,23l97.74-.1a11.5,11.5,0,1,0,0-23Z" fill="#dedede"/><path d="M205.08,120.09l-4.84-10.45a133,133,0,0,1,15.65-6l3.46,11A118,118,0,0,0,205.08,120.09Z" fill="#87ced9"/><path d="M128.35,266a132.84,132.84,0,0,1-5-36.06,130.93,130.93,0,0,1,14.36-60.13L147.93,175a119.6,119.6,0,0,0-13.1,54.9,121.47,121.47,0,0,0,4.58,32.93Z" fill="#87ced9"/><path d="M225.66,358.62a132.93,132.93,0,0,1-72-44.57l8.86-7.32a121.34,121.34,0,0,0,65.74,40.7Z" fill="#87ced9"/><path d="M285.76,358.55l-2.62-11.19A120.82,120.82,0,0,0,353.06,301l9.29,6.78a132.27,132.27,0,0,1-76.59,50.75Z" fill="#87ced9"/><path d="M384.39,259.7l-11.2-2.58a122,122,0,0,0,3.12-27.45A120.67,120.67,0,0,0,277.4,111l2.07-11.31A132.39,132.39,0,0,1,385.59,254Q385.05,256.83,384.39,259.7Z" fill="#87ced9"/><path d="M149.06,254.18a109.56,109.56,0,0,1,15.6-85l9.56,6.39a98,98,0,0,0-13.94,76Z" fill="#87ced9"/><path d="M225.34,334.8a109.4,109.4,0,0,1-45.24-26l7.94-8.31a97.94,97.94,0,0,0,40.48,23.28Z" fill="#87ced9"/><path d="M286,334.73l-3.19-11a97.22,97.22,0,0,0,48.83-32.54l8.94,7.22A108.63,108.63,0,0,1,286,334.73Z" fill="#87ced9"/><path d="M364.16,241.8l-11.41-1.24a101.2,101.2,0,0,0,.56-10.87,97.17,97.17,0,0,0-76.12-95.24l2.54-11.21a108.63,108.63,0,0,1,85.08,106.44,111.44,111.44,0,0,1-.65,12.12Z" fill="#87ced9"/><path d="M380.68,285.86A172.55,172.55,0,0,0,272.73,220c-.07-.36-.19-.71-.28-1.07a17.57,17.57,0,0,0-.58-1.87c-.16-.44-.35-.86-.54-1.27s-.5-1-.78-1.44a18.1,18.1,0,0,0-1.52-2.18c-.26-.31-.49-.65-.77-.94-.45-.47-.93-.92-1.42-1.34l-.58-.49a17.63,17.63,0,0,0-6.25-3.18L259.87,81.7A7.07,7.07,0,0,0,246.25,79a175.87,175.87,0,0,0-1.4,130.17,17.19,17.19,0,0,0-2.77,2.62c-.12.14-.24.29-.35.44a17.05,17.05,0,0,0-1.79,2.67c-.14.27-.29.52-.43.8a19.3,19.3,0,0,0-1,2.81c-.09.32-.21.63-.29,1a18.2,18.2,0,0,0-.48,4c0,.48.11.93.14,1.4L132.55,286.34a7.2,7.2,0,0,0-2.59,9.78,7.1,7.1,0,0,0,7,3.51A172.36,172.36,0,0,0,246.82,239a18.31,18.31,0,0,0,3.18,1.38c.39.13.79.27,1.19.37s.8.18,1.22.25a16.53,16.53,0,0,0,3,.29,18.26,18.26,0,0,0,3.54-.37,16.88,16.88,0,0,0,2.88-.9l.41-.13a17.59,17.59,0,0,0,5.59-3.78l103.71,60.29a7.06,7.06,0,0,0,9.64-2.57l0-.06a7.2,7.2,0,0,0-.51-7.92Z" fill="#4398d1"/><circle cx="255.76" cy="223.42" r="15.5" fill="#cc3232"/></g></g></svg>